<svg width="16" height="16" viewBox="0 0 16 16" fill="none" xmlns="http://www.w3.org/2000/svg">
<path d="M14 7.75781C14.3125 7.97135 14.5911 8.21354 14.8359 8.48438C15.0807 8.75521 15.2917 9.05208 15.4688 9.375C15.6458 9.69792 15.776 10.0391 15.8594 10.3984C15.9427 10.7578 15.9896 11.125 16 11.5C16 12.1198 15.8828 12.7031 15.6484 13.25C15.4141 13.7969 15.0911 14.2734 14.6797 14.6797C14.2682 15.0859 13.7917 15.4062 13.25 15.6406C12.7083 15.875 12.125 15.9948 11.5 16C11.026 16 10.5677 15.9297 10.125 15.7891C9.68229 15.6484 9.27604 15.4453 8.90625 15.1797C8.53646 14.9141 8.20833 14.5964 7.92188 14.2266C7.63542 13.8568 7.41406 13.4479 7.25781 13H1V1H3V0H4V1H11V0H12V1H14V7.75781ZM2 2V4H13V2H12V3H11V2H4V3H3V2H2ZM7.02344 12C7.00781 11.8385 7 11.6719 7 11.5C7 11.0521 7.0625 10.6172 7.1875 10.1953C7.3125 9.77344 7.5026 9.375 7.75781 9H7V8H8V8.67188C8.21354 8.40625 8.45052 8.17188 8.71094 7.96875C8.97135 7.76562 9.2526 7.59115 9.55469 7.44531C9.85677 7.29948 10.1719 7.1901 10.5 7.11719C10.8281 7.04427 11.1615 7.00521 11.5 7C12.0208 7 12.5208 7.08594 13 7.25781V5H2V12H7.02344ZM11.5 15C11.9844 15 12.4375 14.9089 12.8594 14.7266C13.2812 14.5443 13.651 14.2943 13.9688 13.9766C14.2865 13.6589 14.5365 13.2891 14.7188 12.8672C14.901 12.4453 14.9948 11.9896 15 11.5C15 11.0156 14.9089 10.5625 14.7266 10.1406C14.5443 9.71875 14.2943 9.34896 13.9766 9.03125C13.6589 8.71354 13.2891 8.46354 12.8672 8.28125C12.4453 8.09896 11.9896 8.00521 11.5 8C11.0156 8 10.5625 8.09115 10.1406 8.27344C9.71875 8.45573 9.34896 8.70573 9.03125 9.02344C8.71354 9.34115 8.46354 9.71094 8.28125 10.1328C8.09896 10.5547 8.00521 11.0104 8 11.5C8 11.9844 8.09115 12.4375 8.27344 12.8594C8.45573 13.2812 8.70573 13.651 9.02344 13.9688C9.34115 14.2865 9.71094 14.5365 10.1328 14.7188C10.5547 14.901 11.0104 14.9948 11.5 15ZM12 11H13.5V12H11V9H12V11ZM3 8H4V9H3V8ZM5 8H6V9H5V8ZM5 6H6V7H5V6ZM3 10H4V11H3V10ZM5 10H6V11H5V10ZM8 7H7V6H8V7ZM10 7H9V6H10V7ZM12 7H11V6H12V7Z" fill="black"/>
</svg>
