<svg width="15" height="16" viewBox="0 0 15 16" fill="none" xmlns="http://www.w3.org/2000/svg">
<path d="M13 7.75781C13.3125 7.97135 13.5911 8.21354 13.8359 8.48438C14.0807 8.75521 14.2917 9.05208 14.4688 9.375C14.6458 9.69792 14.776 10.0391 14.8594 10.3984C14.9427 10.7578 14.9896 11.125 15 11.5C15 12.1198 14.8828 12.7031 14.6484 13.25C14.4141 13.7969 14.0911 14.2734 13.6797 14.6797C13.2682 15.0859 12.7917 15.4062 12.25 15.6406C11.7083 15.875 11.125 15.9948 10.5 16C10.026 16 9.56771 15.9297 9.125 15.7891C8.68229 15.6484 8.27604 15.4453 7.90625 15.1797C7.53646 14.9141 7.20833 14.5964 6.92188 14.2266C6.63542 13.8568 6.41406 13.4479 6.25781 13H0V1H2V0H3V1H10V0H11V1H13V7.75781ZM1 2V4H12V2H11V3H10V2H3V3H2V2H1ZM6.02344 12C6.00781 11.8385 6 11.6719 6 11.5C6 11.0521 6.0625 10.6172 6.1875 10.1953C6.3125 9.77344 6.5026 9.375 6.75781 9H6V8H7V8.67188C7.21354 8.40625 7.45052 8.17188 7.71094 7.96875C7.97135 7.76562 8.2526 7.59115 8.55469 7.44531C8.85677 7.29948 9.17188 7.1901 9.5 7.11719C9.82812 7.04427 10.1615 7.00521 10.5 7C11.0208 7 11.5208 7.08594 12 7.25781V5H1V12H6.02344ZM10.5 15C10.9844 15 11.4375 14.9089 11.8594 14.7266C12.2812 14.5443 12.651 14.2943 12.9688 13.9766C13.2865 13.6589 13.5365 13.2891 13.7188 12.8672C13.901 12.4453 13.9948 11.9896 14 11.5C14 11.0156 13.9089 10.5625 13.7266 10.1406C13.5443 9.71875 13.2943 9.34896 12.9766 9.03125C12.6589 8.71354 12.2891 8.46354 11.8672 8.28125C11.4453 8.09896 10.9896 8.00521 10.5 8C10.0156 8 9.5625 8.09115 9.14062 8.27344C8.71875 8.45573 8.34896 8.70573 8.03125 9.02344C7.71354 9.34115 7.46354 9.71094 7.28125 10.1328C7.09896 10.5547 7.00521 11.0104 7 11.5C7 11.9844 7.09115 12.4375 7.27344 12.8594C7.45573 13.2812 7.70573 13.651 8.02344 13.9688C8.34115 14.2865 8.71094 14.5365 9.13281 14.7188C9.55469 14.901 10.0104 14.9948 10.5 15ZM11 11H12.5V12H10V9H11V11ZM2 8H3V9H2V8ZM4 8H5V9H4V8ZM4 6H5V7H4V6ZM2 10H3V11H2V10ZM4 10H5V11H4V10ZM7 7H6V6H7V7ZM9 7H8V6H9V7ZM11 7H10V6H11V7Z" fill="white"/>
</svg>
