<svg width="87" height="87" viewBox="0 0 87 87" fill="none" xmlns="http://www.w3.org/2000/svg">
<path d="M39.7696 21.9224H50.6158L62.5106 9.99155C62.8467 9.65269 63.2465 9.38372 63.6871 9.20017C64.1277 9.01662 64.6002 8.92212 65.0775 8.92212C65.5548 8.92212 66.0273 9.01662 66.4679 9.20017C66.9085 9.38372 67.3084 9.65269 67.6445 9.99155L76.9722 19.3555C77.6456 20.0329 78.0236 20.9492 78.0236 21.9044C78.0236 22.8595 77.6456 23.7758 76.9722 24.4532L68.6929 32.7687H39.7696V39.9995C39.7696 40.9584 39.3887 41.878 38.7107 42.556C38.0326 43.234 37.113 43.6149 36.1542 43.6149C35.1953 43.6149 34.2757 43.234 33.5977 42.556C32.9197 41.878 32.5388 40.9584 32.5388 39.9995V29.1533C32.5388 27.2355 33.3006 25.3963 34.6566 24.0403C36.0127 22.6842 37.8519 21.9224 39.7696 21.9224ZM18.0771 39.9995V54.4612L9.7978 62.7405C9.12442 63.4179 8.74646 64.3342 8.74646 65.2894C8.74646 66.2445 9.12442 67.1608 9.7978 67.8382L19.1256 77.2022C19.4617 77.541 19.8615 77.81 20.3021 77.9935C20.7427 78.1771 21.2152 78.2716 21.6925 78.2716C22.1698 78.2716 22.6423 78.1771 23.0829 77.9935C23.5235 77.81 23.9234 77.541 24.2595 77.2022L39.7696 61.692H54.2313C55.1901 61.692 56.1097 61.3111 56.7877 60.6331C57.4658 59.9551 57.8467 59.0355 57.8467 58.0766V54.4612H61.4621C62.421 54.4612 63.3406 54.0803 64.0186 53.4022C64.6966 52.7242 65.0775 51.8046 65.0775 50.8458V47.2303H68.6929C69.6518 47.2303 70.5714 46.8494 71.2494 46.1714C71.9274 45.4934 72.3083 44.5738 72.3083 43.6149V39.9995H47.0004V43.6149C47.0004 45.5327 46.2386 47.3719 44.8826 48.7279C43.5265 50.0839 41.6873 50.8458 39.7696 50.8458H32.5388C30.621 50.8458 28.7818 50.0839 27.4258 48.7279C26.0697 47.3719 25.3079 45.5327 25.3079 43.6149V32.7687L18.0771 39.9995Z" fill="#0D4293"/>
</svg>
