<svg width="75" height="75" viewBox="0 0 75 75" fill="none" xmlns="http://www.w3.org/2000/svg">
<path d="M37.2401 19.14C42.1784 19.14 46.9145 21.1018 50.4064 24.5937C53.8983 28.0856 55.8601 32.8217 55.8601 37.76C55.8601 44.6494 52.105 50.6699 46.5501 53.8974V59.4834C46.5501 60.3064 46.2231 61.0958 45.6411 61.6777C45.0591 62.2597 44.2698 62.5867 43.4467 62.5867H31.0334C30.2103 62.5867 29.421 62.2597 28.839 61.6777C28.257 61.0958 27.9301 60.3064 27.9301 59.4834V53.8974C22.3751 50.6699 18.6201 44.6494 18.6201 37.76C18.6201 32.8217 20.5818 28.0856 24.0737 24.5937C27.5657 21.1018 32.3017 19.14 37.2401 19.14ZM43.4467 65.69V68.7934C43.4467 69.6164 43.1198 70.4058 42.5378 70.9877C41.9558 71.5697 41.1665 71.8967 40.3434 71.8967H34.1367C33.3137 71.8967 32.5243 71.5697 31.9423 70.9877C31.3604 70.4058 31.0334 69.6164 31.0334 68.7934V65.69H43.4467ZM62.0667 34.6567H71.3767V40.8634H62.0667V34.6567ZM3.10339 34.6567H12.4134V40.8634H3.10339V34.6567ZM40.3434 3.62335V12.9334H34.1367V3.62335H40.3434ZM15.2685 11.3817L21.8786 18.0228L17.4718 22.3985L10.8617 15.8195L15.2685 11.3817ZM52.6016 17.9918L59.1806 11.3817L63.6184 15.8195L57.0083 22.3985L52.6016 17.9918Z" fill="#0D4293"/>
</svg>
