<svg width="94" height="75" viewBox="0 0 94 75" fill="none" xmlns="http://www.w3.org/2000/svg">
<path d="M48.8048 0.581824L90.6998 23.8568C92.94 25.1079 93.7547 27.9445 92.5036 30.1847C91.2526 32.4249 88.416 33.2396 86.1757 31.9885L46.55 9.97911L6.9098 32.0031C4.66958 33.2541 1.83294 32.4395 0.581913 30.1993C-0.669119 27.959 0.145506 25.1224 2.38573 23.8714L44.2953 0.581824C45.7063 -0.203707 47.4083 -0.203707 48.8194 0.581824H48.8048ZM46.55 23.275C48.0933 23.275 49.5733 23.888 50.6645 24.9792C51.7557 26.0704 52.3688 27.5505 52.3688 29.0937C52.3688 30.6369 51.7557 32.117 50.6645 33.2082C49.5733 34.2994 48.0933 34.9125 46.55 34.9125C45.0068 34.9125 43.5268 34.2994 42.4356 33.2082C41.3443 32.117 40.7313 30.6369 40.7313 29.0937C40.7313 27.5505 41.3443 26.0704 42.4356 24.9792C43.5268 23.888 45.0068 23.275 46.55 23.275ZM20.9475 37.2399C22.4908 37.2399 23.9708 37.853 25.062 38.9442C26.1532 40.0354 26.7663 41.5155 26.7663 43.0587C26.7663 44.6019 26.1532 46.082 25.062 47.1732C23.9708 48.2644 22.4908 48.8774 20.9475 48.8774C19.4043 48.8774 17.9243 48.2644 16.8331 47.1732C15.7418 46.082 15.1288 44.6019 15.1288 43.0587C15.1288 41.5155 15.7418 40.0354 16.8331 38.9442C17.9243 37.853 19.4043 37.2399 20.9475 37.2399ZM66.3338 43.0587C66.3338 41.5155 66.9468 40.0354 68.0381 38.9442C69.1293 37.853 70.6093 37.2399 72.1525 37.2399C73.6958 37.2399 75.1758 37.853 76.267 38.9442C77.3583 40.0354 77.9713 41.5155 77.9713 43.0587C77.9713 44.6019 77.3583 46.082 76.267 47.1732C75.1758 48.2644 73.6958 48.8774 72.1525 48.8774C70.6093 48.8774 69.1293 48.2644 68.0381 47.1732C66.9468 46.082 66.3338 44.6019 66.3338 43.0587ZM33.0069 71.4833L29.0938 64.2244V69.825C29.0938 72.3997 27.0136 74.4799 24.4388 74.4799H17.4563C14.8815 74.4799 12.8013 72.3997 12.8013 69.825V64.2244L8.88818 71.4833C7.97173 73.1853 5.86243 73.8108 4.16044 72.9089C2.45846 72.007 1.83294 69.8831 2.73485 68.1812L8.24812 57.9547C10.4738 53.8088 14.8088 51.2195 19.5219 51.2195H22.3586C24.7297 51.2195 26.999 51.8741 28.9629 53.0524L33.8506 43.9897C36.0763 39.8438 40.4113 37.2545 45.1244 37.2545H47.9611C52.6743 37.2545 56.9947 39.8438 59.2349 43.9897L64.1227 53.0524C66.0865 51.8741 68.3558 51.2195 70.727 51.2195H73.5636C78.2768 51.2195 82.5972 53.8088 84.8374 57.9547L90.3507 68.1812C91.2671 69.8831 90.6271 71.9924 88.9251 72.9089C87.2231 73.8253 85.1138 73.1853 84.1973 71.4833L80.2988 64.2244V69.825C80.2988 72.3997 78.2186 74.4799 75.6438 74.4799H68.6613C66.0865 74.4799 64.0063 72.3997 64.0063 69.825V64.2244L60.0932 71.4833C59.1767 73.1853 57.0674 73.8108 55.3654 72.9089C53.6635 72.007 53.0379 69.8831 53.9398 68.1812L59.2204 58.362C58.9731 58.1147 58.7549 57.8383 58.5949 57.5183L54.6963 50.2594V58.1875C54.6963 60.7622 52.6161 62.8424 50.0413 62.8424H43.0588C40.484 62.8424 38.4038 60.7622 38.4038 58.1875V50.2594L34.4907 57.5183C34.3161 57.8383 34.1125 58.1147 33.8652 58.362L39.1457 68.1812C40.0621 69.8831 39.4221 71.9924 37.7201 72.9089C36.0181 73.8253 33.9088 73.1853 32.9924 71.4833H33.0069Z" fill="#0D4293"/>
</svg>
